Patient4_TMGait_0pt4_02_right_15_EMG.mot
version=1
nRows=19
nColumns=33
inDegrees=no
endheader
time	1LAddLong	2LGlutMax	3LGlutMed	4LIliopsoas	5LSemiMemb	6LBicFemLong	7LRecFem	8LVastMed	9LVastLat	10LGasMed	11LTibAnt	12lTibPost	13LPeroneusLong	14LSol	15LExtDigLong	16LFlexDigLong	17RAddLong	18RGlutMax	19RGlutMed	20RIliopsoas	21RSemiMemb	22RBicFemLong	23RRecFem	24RVastMed	25RVastLat	26RGasMed	27RTibAnt	28RTibPost	29RPeroneusLong	30RSol	31RExtDigLong	32RFlexDigLong
20.275	0.025024	-0.16342	-0.058289	0.01297	0.091705	-0.23071	0.00885	0.032806	-0.057373	0.013123	0.003662	0.007477	-0.026855	0.034485	0.001068	0.002136	0.005493	-0.12665	-0.070343	0.090179	0.047302	0.14725	-0.35812	-0.021057	-0.021667	0.001068	-0.09552	-0.001678	-0.041046	-0.086975	0.002289	-0.010834
20.276	0.023804	-0.064087	-0.031433	0.016632	0.080566	-0.4953	-0.044708	0.026855	-0.085144	0.00824	0.000305	0.004578	-0.019531	0.03006	-0.002441	0.005493	0.000458	-0.096588	0.0354	0.01358	0.013123	0.30395	-0.35004	-0.021667	-0.041046	0.000458	-0.037231	-0.006714	-0.042877	-0.1445	-0.001221	-0.016937
20.277	0.026703	-0.036774	-0.033112	0.009613	0.077972	-0.37735	-0.094604	0.028839	-0.036316	0.017395	-0.005188	-0.00061	-0.009308	0.03418	0.001831	0.009308	0.019531	-0.10407	0.066223	-0.069275	0.13321	0.29968	-0.42374	-0.068665	-0.06012	-0.013123	0.025177	0.000458	-0.075684	-0.1265	0.002747	-0.01297
20.278	0.023041	-0.030212	0.007019	0.008698	0.051727	-0.26581	-0.10056	0.010986	0.028839	0.016937	0.001068	-0.001221	-0.013275	0.024719	0.007935	-0.004425	0.011749	-0.082245	-0.11078	-0.090637	0.14465	0.40039	-0.40344	-0.015564	-0.011749	0.001068	0.032196	-0.004425	-0.067139	-0.048981	-0.005035	-0.007172
20.279	0.01297	-0.0737	-0.015106	0.003662	-0.000305	-0.13672	-0.02594	-0.005798	0.080566	0.029602	-0.002289	-0.010529	-0.010834	0.034485	0.000153	0.006409	0.037231	-0.031281	-0.014496	-0.076141	0.2034	0.18921	-0.33371	-0.046997	-0.019684	0.000153	-0.007324	-0.000305	0.059052	-0.050964	0.001984	-0.014954
20.28	-0.005493	-0.10315	0.02243	0.00885	-0.020752	-0.060883	-0.06897	-0.014496	0.045166	0.021362	-0.062866	-0.021973	-0.013275	0.030823	0.001373	0.001526	0.052185	-0.085907	0.21118	-0.039825	0.076141	0.01358	-0.33508	-0.087433	-0.03067	-0.002594	-0.014191	-0.007172	0.10071	-0.10956	0.005188	-0.0177
20.281	-0.023346	-0.089264	0.001373	0.009003	-0.021057	-0.09552	-0.067902	-0.022278	0.09964	0.033569	-0.022278	-0.026093	-0.018921	0.0354	0.007782	0.00061	0.058289	-0.092316	0.20538	0.05188	-0.12573	-0.072479	-0.42648	-0.21088	-0.036774	0.005341	-0.014954	-0.011139	0.016327	-0.26703	0.002747	-0.001526
20.282	-0.028381	-0.0914	-0.09079	0.00885	-0.011292	-0.17532	-0.05127	-0.029449	0.15717	0.042572	0.015411	-0.00946	-0.009918	0.034637	-0.00412	0.002747	0.025177	-0.003357	-0.24994	0.1445	-0.14313	-0.11154	-0.48126	-0.04715	-0.015717	-0.003662	0.017242	-0.003204	-0.059814	-0.32913	0.005341	-0.011139
20.283	-0.019073	-0.083313	-0.1239	0.014648	-0.012207	-0.25085	-0.011292	-0.007172	0.24826	0.02121	-0.006409	-0.020599	-0.021973	0.03067	-0.004272	0.006714	-0.036926	0.11505	-0.12283	0.06424	-0.097046	-0.11169	-0.44373	0.066681	0.042419	-0.020447	0.040741	-0.002441	-0.12833	-0.20264	0.007019	-0.013123
20.284	-0.014038	-0.10132	-0.11276	0.007629	-0.03418	-0.26398	0.043182	-0.020294	0.2243	0.009918	-0.022278	0.000305	-0.016327	0.023499	-0.002747	-0.005341	-0.021515	0.11734	0.000763	0.049286	0.001526	-0.043182	-0.32715	0.078125	-0.014496	-0.018311	0.048676	-0.003204	-0.10574	-0.026703	0.00824	-0.011139
20.285	-0.006866	-0.15442	0.033112	-0.002594	-0.017395	-0.22308	0.024414	-0.022736	0.064087	0.032501	-0.010529	-0.010529	0.003052	0.025177	-0.010986	-0.004578	-0.023193	0.11185	0.043182	0.12726	0.22568	-0.09613	-0.32776	0.10681	-0.04364	-0.012512	0.028381	-0.000916	-0.025482	0.15182	0.00351	-0.018921
20.286	0.010986	-0.23285	0.068512	0.016937	0.066528	-0.09552	0.00412	-0.023346	0.014648	0.039215	-0.012512	-0.008087	-0.008545	0.025635	-0.009766	-0.003815	-0.011292	0.11902	0.003204	0.088806	0.16083	-0.068817	-0.31891	0.072632	-0.021057	-0.019989	0.055389	-0.001373	0.029449	-0.009613	0.009613	-0.022125
20.287	0.025177	-0.20599	0.029297	0.004425	0.075989	-0.040894	0.075989	-0.009155	-0.004272	0.02243	-0.00473	-0.007629	-0.000458	0.023041	0.013275	-0.000305	-0.005798	0.15381	-0.12695	0.029602	0.14603	-0.11932	-0.34729	0.015564	-0.02243	-0.010529	0.013428	-0.001984	0.17441	-0.098877	0.007172	-0.019531
20.288	0.019073	-0.16953	0.00885	0.014343	0.076904	0.053864	0.18204	-0.006104	-0.014954	0.035706	-0.006866	-0.002136	-0.032806	0.029602	0.041656	0.005951	0.00412	0.18372	-0.007324	-0.031128	0.12787	-0.050812	-0.31113	0.034637	-0.017548	-0.015564	0.023499	-0.001678	0.070648	0.23438	0.00061	-0.017853
20.289	0.022583	-0.1799	-0.071411	0.010071	0.053711	0.11017	0.12711	-0.005341	-0.093079	0.030823	-0.007324	0.01358	-0.039825	0.016937	0.014954	0.009613	-0.010834	0.051575	-0.10223	-0.054932	0.13886	0.053253	-0.36774	0.054626	0.002136	-0.009003	-0.010681	-0.003815	-0.045013	0.041199	0.009766	-0.020752
20.29	0.014801	-0.1651	-0.03952	0.019226	-0.013428	0.041504	0.095673	-0.013428	-0.11276	0.035095	0.018463	0.000916	0.048676	0.031586	0.014954	0.007019	-0.007019	0.13168	0.26077	-0.061951	0.11795	0.01236	-0.3801	0.083313	0.001068	-0.002899	0.092926	-0.005493	-0.031586	-0.49439	-0.001068	-0.01358
20.291	0.00946	-0.15411	0.033264	0.002136	-0.041199	0.016479	0.11139	-0.00351	-0.1207	0.052643	0.032043	0.012207	0.068054	0.04715	0.028839	-0.006256	0.016479	0.08728	0.094757	-0.059509	0.11902	0.01297	-0.33356	-0.00824	-0.025024	-0.000458	0.14313	-0.009766	-0.013428	-0.49347	0.00473	-0.018158
20.292	-0.00061	-0.18066	0.12634	-0.001984	-0.038452	-0.071106	0.09491	-0.009766	-0.11734	-0.002136	0.005341	0.009918	0.067902	0.075989	0.01236	-0.000458	0.01358	0.039063	-0.14786	-0.042572	0.10468	0.049744	-0.31891	-0.032501	-0.018005	-0.001373	0.058441	-0.005035	-0.00473	0.058594	0.005493	-0.03418
20.293	-0.009766	-0.15869	0.12924	0.000153	-0.037689	-0.18082	0.005646	-0.006409	0	0.002441	0.025024	0.015564	0.08728	0.047455	-0.001068	-0.008087	0.016327	0.049591	0.088348	0.027313	0.10147	0.06958	-0.345	-0.034027	-0.019989	-0.010071	-0.11383	0.001984	0.091095	0.62103	0.008545	-0.022736
